<svg xmlns="http://www.w3.org/2000/svg" width="1200" height="630" viewBox="0 0 1200 630">
  <defs>
    <linearGradient id="bg" x1="0" y1="0" x2="1" y2="1">
      <stop offset="0" stop-color="#081121"/>
      <stop offset="1" stop-color="#111C33"/>
    </linearGradient>
    <linearGradient id="accent" x1="0" y1="0" x2="1" y2="1">
      <stop offset="0" stop-color="#0FB981"/>
      <stop offset="1" stop-color="#45D6A4"/>
    </linearGradient>
    <filter id="glow" x="-30%" y="-30%" width="160%" height="160%">
      <feGaussianBlur stdDeviation="34" result="blur"/>
      <feColorMatrix in="blur" type="matrix" values="0 0 0 0 0.059 0 0 0 0 0.725 0 0 0 0 0.506 0 0 0 0.65 0"/>
      <feBlend in="SourceGraphic"/>
    </filter>
  </defs>
  <rect width="1200" height="630" fill="url(#bg)"/>
  <path d="M0 520C160 470 270 548 438 500C623 447 692 327 864 326C1006 324 1103 403 1200 359V630H0Z" fill="#0FBA81" opacity="0.09"/>
  <path d="M0 0H1200V630H0Z" fill="none" stroke="#243047" stroke-width="2"/>
  <g transform="translate(84 86)" filter="url(#glow)">
    <rect x="96" y="0" width="188" height="88" rx="22" fill="url(#accent)"/>
    <rect x="0" y="116" width="228" height="88" rx="22" fill="url(#accent)"/>
    <rect x="16" y="232" width="296" height="92" rx="22" fill="url(#accent)"/>
  </g>
  <g fill="#EEF2F9" font-family="Inter, Arial, sans-serif">
    <text x="470" y="180" font-size="40" font-weight="700" letter-spacing="3">CAIRN</text>
    <text x="470" y="292" font-size="84" font-weight="800">One Project.</text>
    <text x="470" y="394" font-size="84" font-weight="800">One Place.</text>
    <text x="474" y="470" font-size="30" fill="#9BA8BE">Chat, calendar, files, records and AI for small teams.</text>
  </g>
  <g transform="translate(474 514)">
    <rect width="205" height="46" rx="23" fill="#0FB981"/>
    <text x="102" y="30" fill="#06281D" font-family="Inter, Arial, sans-serif" font-size="18" font-weight="800" text-anchor="middle">Open Source</text>
  </g>
</svg>
